<svg width="252" height="438" viewBox="0 0 252 438" fill="none" xmlns="http://www.w3.org/2000/svg">
<rect width="201" height="32" rx="6" fill="#F2F3F6"/>
<mask id="mask0_1753_21042" style="mask-type:alpha" maskUnits="userSpaceOnUse" x="4" y="4" width="24" height="24">
<rect x="4" y="4" width="24" height="24" fill="#D9D9D9"/>
</mask>
<g mask="url(#mask0_1753_21042)">
<path d="M13.5192 19.6153C11.8116 19.6153 10.3654 19.023 9.18075 17.8385C7.99625 16.6538 7.404 15.2077 7.404 13.5C7.404 11.7923 7.99625 10.3462 9.18075 9.16152C10.3654 7.97702 11.8116 7.38477 13.5192 7.38477C15.2269 7.38477 16.6731 7.97702 17.8577 9.16152C19.0422 10.3462 19.6345 11.7923 19.6345 13.5C19.6345 14.2142 19.5147 14.8963 19.275 15.5463C19.0352 16.1963 18.7152 16.7616 18.3152 17.2423L24.0692 22.9963C24.2077 23.1346 24.2786 23.3086 24.2817 23.5183C24.2849 23.7279 24.2141 23.9052 24.0692 24.05C23.9244 24.1948 23.7487 24.2673 23.5422 24.2673C23.3359 24.2673 23.1603 24.1948 23.0155 24.05L17.2615 18.296C16.7615 18.7088 16.1865 19.0319 15.5365 19.2653C14.8865 19.4986 14.2141 19.6153 13.5192 19.6153ZM13.5192 18.1155C14.8077 18.1155 15.8991 17.6683 16.7932 16.774C17.6876 15.8798 18.1347 14.7885 18.1347 13.5C18.1347 12.2115 17.6876 11.1202 16.7932 10.226C15.8991 9.33168 14.8077 8.88452 13.5192 8.88452C12.2307 8.88452 11.1394 9.33168 10.2452 10.226C9.35092 11.1202 8.90375 12.2115 8.90375 13.5C8.90375 14.7885 9.35092 15.8798 10.2452 16.774C11.1394 17.6683 12.2307 18.1155 13.5192 18.1155Z" fill="#D1D3D8"/>
</g>
<rect y="40" width="76" height="24" rx="6" fill="#F2F3F6"/>
<rect x="88" y="40" width="76" height="24" rx="6" fill="#F2F3F6"/>
<rect x="176" y="40" width="76" height="24" rx="6" fill="#F2F3F6"/>
<rect y="80" width="120" height="188" rx="6" fill="#FF6600" fill-opacity="0.14"/>
<rect x="8" y="242" width="30.6667" height="18" rx="2" fill="#FF6600"/>
<rect x="44.6667" y="242" width="30.6667" height="18" rx="2" fill="#FF6600"/>
<rect x="132" y="80" width="120" height="188" rx="6" fill="#F2F3F6"/>
<rect x="140" y="242" width="30.6667" height="18" rx="2" fill="#FF6600"/>
<rect x="176.667" y="242" width="30.6667" height="18" rx="2" fill="#DCDEE3"/>
<rect x="213.333" y="242" width="30.6667" height="18" rx="2" fill="#DCDEE3"/>
<rect y="280" width="120" height="158" rx="6" fill="url(#paint0_linear_1753_21042)"/>
<rect x="132" y="280" width="120" height="158" rx="6" fill="url(#paint1_linear_1753_21042)"/>
<defs>
<linearGradient id="paint0_linear_1753_21042" x1="60" y1="280" x2="60" y2="438" gradientUnits="userSpaceOnUse">
<stop stop-color="#F2F3F6"/>
<stop offset="1" stop-color="white" stop-opacity="0"/>
</linearGradient>
<linearGradient id="paint1_linear_1753_21042" x1="192" y1="280" x2="192" y2="438" gradientUnits="userSpaceOnUse">
<stop stop-color="#F2F3F6"/>
<stop offset="1" stop-color="white" stop-opacity="0"/>
</linearGradient>
</defs>
</svg>
