<svg width="180" height="282" viewBox="0 0 180 282" fill="none" xmlns="http://www.w3.org/2000/svg">
<rect width="56" height="90" rx="4" fill="url(#paint0_linear_1429_6760)"/>
<rect x="62" width="56" height="90" rx="4" fill="url(#paint1_linear_1429_6760)"/>
<rect x="124" width="56" height="90" rx="4" fill="url(#paint2_linear_1429_6760)"/>
<rect y="96" width="56" height="90" rx="4" fill="#F7F8FA"/>
<rect x="62" y="96" width="56" height="90" rx="4" fill="#F7F8FA"/>
<rect x="124" y="96" width="56" height="90" rx="4" fill="#F7F8FA"/>
<rect y="192" width="56" height="90" rx="4" fill="url(#paint3_linear_1429_6760)"/>
<rect x="62" y="192" width="56" height="90" rx="4" fill="url(#paint4_linear_1429_6760)"/>
<rect x="124" y="192" width="56" height="90" rx="4" fill="url(#paint5_linear_1429_6760)"/>
<defs>
<linearGradient id="paint0_linear_1429_6760" x1="28" y1="0" x2="28" y2="90" gradientUnits="userSpaceOnUse">
<stop stop-color="#F7F8FA" stop-opacity="0"/>
<stop offset="1" stop-color="#F7F8FA"/>
</linearGradient>
<linearGradient id="paint1_linear_1429_6760" x1="90" y1="0" x2="90" y2="90" gradientUnits="userSpaceOnUse">
<stop stop-color="#F7F8FA" stop-opacity="0"/>
<stop offset="1" stop-color="#F7F8FA"/>
</linearGradient>
<linearGradient id="paint2_linear_1429_6760" x1="152" y1="0" x2="152" y2="90" gradientUnits="userSpaceOnUse">
<stop stop-color="#F7F8FA" stop-opacity="0"/>
<stop offset="1" stop-color="#F7F8FA"/>
</linearGradient>
<linearGradient id="paint3_linear_1429_6760" x1="28" y1="192" x2="28" y2="282" gradientUnits="userSpaceOnUse">
<stop stop-color="#F7F8FA"/>
<stop offset="1" stop-color="#F7F8FA" stop-opacity="0"/>
</linearGradient>
<linearGradient id="paint4_linear_1429_6760" x1="90" y1="192" x2="90" y2="282" gradientUnits="userSpaceOnUse">
<stop stop-color="#F7F8FA"/>
<stop offset="1" stop-color="#F7F8FA" stop-opacity="0"/>
</linearGradient>
<linearGradient id="paint5_linear_1429_6760" x1="152" y1="192" x2="152" y2="282" gradientUnits="userSpaceOnUse">
<stop stop-color="#F7F8FA"/>
<stop offset="1" stop-color="#F7F8FA" stop-opacity="0"/>
</linearGradient>
</defs>
</svg>
