<svg width="170" height="60" viewBox="0 0 170 60" fill="none" xmlns="http://www.w3.org/2000/svg">
<path d="M161.064 0H170V38.1698H161.064V22.7232H155.83V34.2763H147.021V2.29785H155.83V14.2339H161.064V0ZM141.915 33.638H132.532V25.404H119.32V17.1062H132.532V12.5743H116.064V4.14889H141.915V33.638ZM168.532 53.808L161.83 59.4249L148.745 47.7442L135.66 59.4249L129.022 53.808L148.745 36.3826L168.532 53.808Z" fill="#FF6600"/>
<path d="M72.3593 5.42548H81.6784V15.1913H93.7421V23.4891H84.1677L94.6357 41.2975L87.9974 46.6591L77.0188 27.1912L66.0402 46.6591L59.4658 41.2975L69.7423 23.4891H60.2956V15.1913H72.3593V5.42548ZM101.146 48.2548V33.638H90.7421V25.2125H101.146V0H110.529V48.2548H101.146Z" fill="#FF6600"/>
<path d="M43.2123 36.3826H52.3399V59.1058H19.6594V35.7443H29.0423V41.4889H43.2123V36.3826ZM44.9995 0H53.9356V33.5103H44.9995V21.7657H39.7656V33.0635H30.9571V2.29785H39.7656V13.2765H44.9995V0ZM25.8508 32.1061H16.6594V25.021H3.25529V16.7232H16.6594V12.5105H0V4.21272H25.8508V32.1061ZM43.0847 48.3187H28.9146V52.3399H43.0847V48.3187Z" fill="#FF6600"/>
</svg>
