<svg width="150" height="218" viewBox="0 0 150 218" fill="none" xmlns="http://www.w3.org/2000/svg">
<g filter="url(#filter0_n_1706_19296)">
<path d="M145 86.9858C145 125.646 113.66 140.886 74.9999 140.886C36.34 140.886 4.99994 125.646 4.99994 86.9858C4.99994 48.3259 36.34 16.9858 74.9999 16.9858C113.66 16.9858 145 48.3259 145 86.9858Z" fill="url(#paint0_radial_1706_19296)"/>
</g>
<path d="M71.2666 73.6857C71.2666 82.9641 65.3119 90.4857 57.9666 90.4857C50.6212 90.4857 44.6666 82.9641 44.6666 73.6857C44.6666 64.4074 50.6212 56.8857 57.9666 56.8857C65.3119 56.8857 71.2666 64.4074 71.2666 73.6857Z" fill="white"/>
<path d="M105.333 73.6857C105.333 82.9641 99.3785 90.4857 92.0332 90.4857C84.6878 90.4857 78.7332 82.9641 78.7332 73.6857C78.7332 64.4074 84.6878 56.8857 92.0332 56.8857C99.3785 56.8857 105.333 64.4074 105.333 73.6857Z" fill="white"/>
<path d="M68.4667 76.7192C68.4667 80.5852 65.3327 83.7192 61.4667 83.7192C57.6007 83.7192 54.4667 80.5852 54.4667 76.7192C54.4667 72.8532 57.6007 69.7192 61.4667 69.7192C65.3327 69.7192 68.4667 72.8532 68.4667 76.7192Z" fill="black"/>
<path d="M95.9999 76.7192C95.9999 80.5852 92.8659 83.7192 88.9999 83.7192C85.1339 83.7192 81.9999 80.5852 81.9999 76.7192C81.9999 72.8532 85.1339 69.7192 88.9999 69.7192C92.8659 69.7192 95.9999 72.8532 95.9999 76.7192Z" fill="black"/>
<path d="M78.7333 95.3854C78.7333 96.9318 76.8528 98.1854 74.5333 98.1854C72.2137 98.1854 70.3333 96.9318 70.3333 95.3854C70.3333 93.8391 72.2137 92.5854 74.5333 92.5854C76.8528 92.5854 78.7333 93.8391 78.7333 95.3854Z" fill="black"/>
<path d="M60.0667 73.9186C60.0667 74.6918 59.4399 75.3186 58.6667 75.3186C57.8935 75.3186 57.2667 74.6918 57.2667 73.9186C57.2667 73.1454 57.8935 72.5186 58.6667 72.5186C59.4399 72.5186 60.0667 73.1454 60.0667 73.9186Z" fill="white"/>
<path d="M87.6 73.9186C87.6 74.6918 86.9732 75.3186 86.2 75.3186C85.4268 75.3186 84.8 74.6918 84.8 73.9186C84.8 73.1454 85.4268 72.5186 86.2 72.5186C86.9732 72.5186 87.6 73.1454 87.6 73.9186Z" fill="white"/>
<path d="M63.5666 76.0188C63.5666 76.4054 63.2532 76.7188 62.8666 76.7188C62.48 76.7188 62.1666 76.4054 62.1666 76.0188C62.1666 75.6322 62.48 75.3188 62.8666 75.3188C63.2532 75.3188 63.5666 75.6322 63.5666 76.0188Z" fill="white"/>
<path d="M91.1 76.0188C91.1 76.4054 90.7866 76.7188 90.4 76.7188C90.0134 76.7188 89.7 76.4054 89.7 76.0188C89.7 75.6322 90.0134 75.3188 90.4 75.3188C90.7866 75.3188 91.1 75.6322 91.1 76.0188Z" fill="white"/>
<g filter="url(#filter1_n_1706_19296)">
<path d="M92.7487 3.52178C94.9089 0.0222744 99.9783 -0.032841 102.214 3.41887L124 37.0533L74.0667 33.7866L92.7487 3.52178Z" fill="url(#paint1_linear_1706_19296)"/>
</g>
<g filter="url(#filter2_n_1706_19296)">
<path d="M57.6772 3.45488C55.5272 -0.0281473 50.4887 -0.102989 48.2362 3.31465L26 37.0524L76.4 33.7857L57.6772 3.45488Z" fill="url(#paint2_linear_1706_19296)"/>
</g>
<path d="M142.115 164.886H150V198.565H142.115V184.936H137.497V195.129H129.725V166.913H137.497V177.445H142.115V164.886ZM125.219 194.566H116.94V187.301H105.282V179.979H116.94V175.981H102.41V168.547H125.219V194.566ZM148.705 212.363L142.791 217.32L131.246 207.013L119.7 217.32L113.843 212.363L131.246 196.988L148.705 212.363Z" fill="#FF6600"/>
<path d="M63.8464 169.673H72.0691V178.29H82.7135V185.611H74.2656L83.502 201.325L77.6447 206.056L67.9577 188.878L58.2707 206.056L52.4698 201.325L61.5373 185.611H53.2019V178.29H63.8464V169.673ZM89.2466 207.464V194.566H80.0665V187.132H89.2466V164.886H97.5257V207.464H89.2466Z" fill="#FF6600"/>
<path d="M38.1285 196.988H46.1823V217.038H17.3465V196.425H25.6255V201.494H38.1285V196.988ZM39.7055 164.886H47.5903V194.454H39.7055V184.091H35.0873V194.059H27.3151V166.913H35.0873V176.6H39.7055V164.886ZM22.8095 193.215H14.6995V186.963H2.87231V179.642H14.6995V175.924H0V168.603H22.8095V193.215ZM38.0159 207.52H25.5129V211.068H38.0159V207.52Z" fill="#FF6600"/>
<defs>
<filter id="filter0_n_1706_19296" x="4.99994" y="16.9858" width="140" height="123.9" filterUnits="userSpaceOnUse" color-interpolation-filters="sRGB">
<feFlood flood-opacity="0" result="BackgroundImageFix"/>
<feBlend mode="normal" in="SourceGraphic" in2="BackgroundImageFix" result="shape"/>
<feTurbulence type="fractalNoise" baseFrequency="4.6106252670288086 4.6106252670288086" stitchTiles="stitch" numOctaves="3" result="noise" seed="2528" />
<feColorMatrix in="noise" type="luminanceToAlpha" result="alphaNoise" />
<feComponentTransfer in="alphaNoise" result="coloredNoise1">
<feFuncA type="discrete" tableValues="0 0 0 0 0 0 0 0 0 0 0 0 1 1 1 1 1 1 1 1 1 1 1 1 1 1 1 1 1 1 1 1 1 1 1 1 1 1 0 0 0 0 0 0 0 0 0 0 0 0 0 0 0 0 0 0 0 0 0 0 0 0 0 0 0 0 0 0 0 0 0 0 0 0 0 0 0 0 0 0 0 0 0 0 0 0 0 0 0 0 0 0 0 0 0 0 0 0 0 0 "/>
</feComponentTransfer>
<feComposite operator="in" in2="shape" in="coloredNoise1" result="noise1Clipped" />
<feComponentTransfer in="alphaNoise" result="coloredNoise2">
<feFuncA type="discrete" tableValues="0 0 0 0 0 0 0 0 0 0 0 0 0 0 0 0 0 0 0 0 0 0 0 0 0 0 0 0 0 0 0 0 0 0 0 0 0 0 0 0 0 0 0 0 0 0 0 0 0 0 0 0 0 0 0 0 0 0 0 0 0 0 1 1 1 1 1 1 1 1 1 1 1 1 1 1 1 1 1 1 1 1 1 1 1 1 1 1 0 0 0 0 0 0 0 0 0 0 0 0 "/>
</feComponentTransfer>
<feComposite operator="in" in2="shape" in="coloredNoise2" result="noise2Clipped" />
<feFlood flood-color="rgba(0, 0, 0, 0.25)" result="color1Flood" />
<feComposite operator="in" in2="noise1Clipped" in="color1Flood" result="color1" />
<feFlood flood-color="rgba(255, 255, 255, 0.25)" result="color2Flood" />
<feComposite operator="in" in2="noise2Clipped" in="color2Flood" result="color2" />
<feMerge result="effect1_noise_1706_19296">
<feMergeNode in="shape" />
<feMergeNode in="color1" />
<feMergeNode in="color2" />
</feMerge>
</filter>
<filter id="filter1_n_1706_19296" x="74.0667" y="0.863281" width="49.9333" height="36.1899" filterUnits="userSpaceOnUse" color-interpolation-filters="sRGB">
<feFlood flood-opacity="0" result="BackgroundImageFix"/>
<feBlend mode="normal" in="SourceGraphic" in2="BackgroundImageFix" result="shape"/>
<feTurbulence type="fractalNoise" baseFrequency="4.6106257438659668 4.6106257438659668" stitchTiles="stitch" numOctaves="3" result="noise" seed="3434" />
<feColorMatrix in="noise" type="luminanceToAlpha" result="alphaNoise" />
<feComponentTransfer in="alphaNoise" result="coloredNoise1">
<feFuncA type="discrete" tableValues="0 0 0 0 0 0 0 0 0 0 0 0 1 1 1 1 1 1 1 1 1 1 1 1 1 1 1 1 1 1 1 1 1 1 1 1 1 1 0 0 0 0 0 0 0 0 0 0 0 0 0 0 0 0 0 0 0 0 0 0 0 0 0 0 0 0 0 0 0 0 0 0 0 0 0 0 0 0 0 0 0 0 0 0 0 0 0 0 0 0 0 0 0 0 0 0 0 0 0 0 "/>
</feComponentTransfer>
<feComposite operator="in" in2="shape" in="coloredNoise1" result="noise1Clipped" />
<feComponentTransfer in="alphaNoise" result="coloredNoise2">
<feFuncA type="discrete" tableValues="0 0 0 0 0 0 0 0 0 0 0 0 0 0 0 0 0 0 0 0 0 0 0 0 0 0 0 0 0 0 0 0 0 0 0 0 0 0 0 0 0 0 0 0 0 0 0 0 0 0 0 0 0 0 0 0 0 0 0 0 0 0 1 1 1 1 1 1 1 1 1 1 1 1 1 1 1 1 1 1 1 1 1 1 1 1 1 1 0 0 0 0 0 0 0 0 0 0 0 0 "/>
</feComponentTransfer>
<feComposite operator="in" in2="shape" in="coloredNoise2" result="noise2Clipped" />
<feFlood flood-color="rgba(0, 0, 0, 0.25)" result="color1Flood" />
<feComposite operator="in" in2="noise1Clipped" in="color1Flood" result="color1" />
<feFlood flood-color="rgba(255, 255, 255, 0)" result="color2Flood" />
<feComposite operator="in" in2="noise2Clipped" in="color2Flood" result="color2" />
<feMerge result="effect1_noise_1706_19296">
<feMergeNode in="shape" />
<feMergeNode in="color1" />
<feMergeNode in="color2" />
</feMerge>
</filter>
<filter id="filter2_n_1706_19296" x="25.9999" y="0.796387" width="50.4" height="36.2559" filterUnits="userSpaceOnUse" color-interpolation-filters="sRGB">
<feFlood flood-opacity="0" result="BackgroundImageFix"/>
<feBlend mode="normal" in="SourceGraphic" in2="BackgroundImageFix" result="shape"/>
<feTurbulence type="fractalNoise" baseFrequency="4.6106257438659668 4.6106257438659668" stitchTiles="stitch" numOctaves="3" result="noise" seed="3434" />
<feColorMatrix in="noise" type="luminanceToAlpha" result="alphaNoise" />
<feComponentTransfer in="alphaNoise" result="coloredNoise1">
<feFuncA type="discrete" tableValues="0 0 0 0 0 0 0 0 0 0 0 0 1 1 1 1 1 1 1 1 1 1 1 1 1 1 1 1 1 1 1 1 1 1 1 1 1 1 0 0 0 0 0 0 0 0 0 0 0 0 0 0 0 0 0 0 0 0 0 0 0 0 0 0 0 0 0 0 0 0 0 0 0 0 0 0 0 0 0 0 0 0 0 0 0 0 0 0 0 0 0 0 0 0 0 0 0 0 0 0 "/>
</feComponentTransfer>
<feComposite operator="in" in2="shape" in="coloredNoise1" result="noise1Clipped" />
<feComponentTransfer in="alphaNoise" result="coloredNoise2">
<feFuncA type="discrete" tableValues="0 0 0 0 0 0 0 0 0 0 0 0 0 0 0 0 0 0 0 0 0 0 0 0 0 0 0 0 0 0 0 0 0 0 0 0 0 0 0 0 0 0 0 0 0 0 0 0 0 0 0 0 0 0 0 0 0 0 0 0 0 0 1 1 1 1 1 1 1 1 1 1 1 1 1 1 1 1 1 1 1 1 1 1 1 1 1 1 0 0 0 0 0 0 0 0 0 0 0 0 "/>
</feComponentTransfer>
<feComposite operator="in" in2="shape" in="coloredNoise2" result="noise2Clipped" />
<feFlood flood-color="rgba(0, 0, 0, 0.25)" result="color1Flood" />
<feComposite operator="in" in2="noise1Clipped" in="color1Flood" result="color1" />
<feFlood flood-color="rgba(255, 255, 255, 0)" result="color2Flood" />
<feComposite operator="in" in2="noise2Clipped" in="color2Flood" result="color2" />
<feMerge result="effect1_noise_1706_19296">
<feMergeNode in="shape" />
<feMergeNode in="color1" />
<feMergeNode in="color2" />
</feMerge>
</filter>
<radialGradient id="paint0_radial_1706_19296" cx="0" cy="0" r="1" gradientUnits="userSpaceOnUse" gradientTransform="translate(74.9999 78.9358) rotate(180) scale(70 55.4116)">
<stop stop-color="#FF983F"/>
<stop offset="1" stop-color="#FFD083"/>
</radialGradient>
<linearGradient id="paint1_linear_1706_19296" x1="100.2" y1="2.51995" x2="101.133" y2="37.0533" gradientUnits="userSpaceOnUse">
<stop offset="0.235519" stop-color="#FF983F"/>
<stop offset="1" stop-color="#FFD083" stop-opacity="0.9"/>
</linearGradient>
<linearGradient id="paint2_linear_1706_19296" x1="50.2666" y1="2.51907" x2="49.3333" y2="37.0524" gradientUnits="userSpaceOnUse">
<stop offset="0.235519" stop-color="#FF983F"/>
<stop offset="1" stop-color="#FFD083" stop-opacity="0.9"/>
</linearGradient>
</defs>
</svg>
