<svg width="11" height="12" viewBox="0 0 11 12" fill="none" xmlns="http://www.w3.org/2000/svg">
<path d="M4.84902 6.65049H0.649023C0.464857 6.65049 0.310524 6.58865 0.186024 6.46499C0.0613571 6.34132 -0.000976562 6.18816 -0.000976562 6.00549C-0.000976562 5.82266 0.0613571 5.66782 0.186024 5.54099C0.310524 5.41399 0.464857 5.35049 0.649023 5.35049H4.84902V1.15049C4.84902 0.966322 4.91086 0.811988 5.03452 0.687488C5.15819 0.562821 5.31136 0.500488 5.49402 0.500488C5.67686 0.500488 5.83169 0.562821 5.95852 0.687488C6.08552 0.811988 6.14902 0.966322 6.14902 1.15049V5.35049H10.349C10.5332 5.35049 10.6875 5.41232 10.812 5.53599C10.9367 5.65966 10.999 5.81282 10.999 5.99549C10.999 6.17832 10.9367 6.33316 10.812 6.45999C10.6875 6.58699 10.5332 6.65049 10.349 6.65049H6.14902V10.8505C6.14902 11.0347 6.08719 11.189 5.96352 11.3135C5.83986 11.4382 5.68669 11.5005 5.50402 11.5005C5.32119 11.5005 5.16636 11.4382 5.03952 11.3135C4.91252 11.189 4.84902 11.0347 4.84902 10.8505V6.65049Z" fill="#212124"/>
</svg>
