<svg width="24" height="24" viewBox="0 0 24 24" fill="none" xmlns="http://www.w3.org/2000/svg">
<mask id="mask0_1639_6083" style="mask-type:alpha" maskUnits="userSpaceOnUse" x="0" y="0" width="24" height="24">
<rect width="24" height="24" fill="#D9D9D9"/>
</mask>
<g mask="url(#mask0_1639_6083)">
<path d="M10.9921 3.35544C11.4849 2.64489 12.5168 2.64485 13.0096 3.35544L13.1063 3.51852L15.243 7.74411L19.7548 8.55954C20.7446 8.73884 21.1377 10.0027 20.4374 10.7548L17.246 14.1816L17.8983 18.9121C18.0414 19.9504 17.0111 20.7312 16.1093 20.2685L12.0009 18.1601L7.89246 20.2685C6.99052 20.7314 5.96033 19.9505 6.10339 18.9121L6.75476 14.1816L3.56433 10.7548C2.86392 10.0026 3.25684 8.73862 4.24695 8.55954L8.75769 7.74411L10.8954 3.51852L10.9921 3.35544Z" fill="white"/>
</g>
</svg>
