<svg width="24" height="24" viewBox="0 0 24 24" fill="none" xmlns="http://www.w3.org/2000/svg">
<mask id="mask0_1453_4990" style="mask-type:alpha" maskUnits="userSpaceOnUse" x="0" y="0" width="24" height="24">
<rect width="24" height="24" fill="#D9D9D9"/>
</mask>
<g mask="url(#mask0_1453_4990)">
<path d="M9.04798 15.5384L8.17498 19.0057C8.13782 19.171 8.05832 19.3011 7.93648 19.3959C7.81465 19.4909 7.66598 19.5384 7.49048 19.5384C7.25715 19.5384 7.06607 19.4454 6.91723 19.2594C6.76857 19.0736 6.72632 18.8692 6.79048 18.6462L7.56723 15.5384H4.71723C4.46723 15.5384 4.26632 15.4429 4.11448 15.2519C3.96248 15.0608 3.91857 14.8453 3.98273 14.6057C4.0264 14.43 4.11582 14.2916 4.25098 14.1904C4.38632 14.0891 4.54173 14.0384 4.71723 14.0384H7.94223L8.96148 9.96143H6.11148C5.86148 9.96143 5.66057 9.86593 5.50873 9.67493C5.35673 9.48393 5.31282 9.26851 5.37698 9.02868C5.42048 8.85318 5.5099 8.71476 5.64523 8.61342C5.7804 8.51209 5.93582 8.46143 6.11148 8.46143H9.33648L10.2097 4.99418C10.2469 4.82884 10.3263 4.69876 10.448 4.60392C10.5698 4.50892 10.7186 4.46143 10.8942 4.46143C11.1276 4.46143 11.3186 4.55443 11.4672 4.74043C11.6159 4.92626 11.6582 5.13068 11.5942 5.35368L10.8172 8.46143H14.952L15.825 4.99418C15.8622 4.82884 15.9417 4.69876 16.0635 4.60392C16.1853 4.50892 16.334 4.46143 16.5095 4.46143C16.7428 4.46143 16.9339 4.55443 17.0827 4.74043C17.2314 4.92626 17.2737 5.13068 17.2095 5.35368L16.4327 8.46143H19.2827C19.5327 8.46143 19.7337 8.55692 19.8855 8.74792C20.0375 8.93909 20.0814 9.15451 20.0172 9.39418C19.9736 9.56984 19.8842 9.70826 19.749 9.80943C19.6137 9.91076 19.4582 9.96143 19.2827 9.96143H16.0577L15.0385 14.0384H17.8885C18.1385 14.0384 18.3394 14.1339 18.4912 14.3249C18.6432 14.5159 18.6872 14.7313 18.623 14.9712C18.5795 15.1467 18.4901 15.2851 18.3547 15.3864C18.2196 15.4878 18.0642 15.5384 17.8885 15.5384H14.6635L13.7902 19.0057C13.7531 19.171 13.6737 19.3011 13.552 19.3959C13.4302 19.4909 13.2814 19.5384 13.1057 19.5384C12.8724 19.5384 12.6814 19.4454 12.5327 19.2594C12.3841 19.0736 12.3417 18.8692 12.4057 18.6462L13.1827 15.5384H9.04798ZM9.42298 14.0384H13.5577L14.577 9.96143H10.4422L9.42298 14.0384Z" fill="#ADB1BA"/>
</g>
</svg>
