<svg width="224" height="465" viewBox="0 0 224 465" fill="none" xmlns="http://www.w3.org/2000/svg">
<rect x="12" width="100" height="157" rx="6" fill="#F2F3F6"/>
<rect x="124" width="100" height="157" rx="6" fill="#F2F3F6"/>
<rect x="12" y="169" width="100" height="157" rx="6" fill="#FF6600" fill-opacity="0.14"/>
<rect x="124" y="169" width="100" height="157" rx="6" fill="#F2F3F6"/>
<rect x="12" y="338" width="100" height="127" rx="6" fill="url(#paint0_linear_1777_23391)"/>
<rect x="124" y="338" width="100" height="127" rx="6" fill="url(#paint1_linear_1777_23391)"/>
<mask id="mask0_1777_23391" style="mask-type:alpha" maskUnits="userSpaceOnUse" x="0" y="157" width="52" height="52">
<rect y="157" width="52" height="52" fill="#D9D9D9"/>
</mask>
<g mask="url(#mask0_1777_23391)">
<path d="M22.9666 186.784L17.9335 181.75C17.6334 181.45 17.2562 181.297 16.8019 181.29C16.348 181.283 15.964 181.436 15.6498 181.75C15.336 182.064 15.1791 182.445 15.1791 182.892C15.1791 183.339 15.336 183.719 15.6498 184.034L21.5957 189.98C21.9875 190.371 22.4445 190.567 22.9666 190.567C23.4888 190.567 23.9458 190.371 24.3376 189.98L36.3919 177.925C36.6916 177.625 36.8451 177.248 36.8523 176.794C36.8591 176.34 36.7057 175.956 36.3919 175.642C36.0777 175.328 35.6971 175.171 35.25 175.171C34.803 175.171 34.4224 175.328 34.1082 175.642L22.9666 186.784ZM11.5001 201.417C10.4056 201.417 9.47915 201.038 8.72081 200.279C7.96248 199.521 7.58331 198.595 7.58331 197.5V168.5C7.58331 167.406 7.96248 166.479 8.72081 165.721C9.47915 164.963 10.4056 164.583 11.5001 164.583H40.4999C41.5944 164.583 42.5208 164.963 43.2791 165.721C44.0375 166.479 44.4166 167.406 44.4166 168.5V197.5C44.4166 198.595 44.0375 199.521 43.2791 200.279C42.5208 201.038 41.5944 201.417 40.4999 201.417H11.5001Z" fill="#FF6600"/>
<path d="M22.9666 186.784L17.9335 181.75C17.6334 181.45 17.2562 181.297 16.8019 181.29C16.348 181.283 15.964 181.436 15.6498 181.75C15.336 182.064 15.1791 182.445 15.1791 182.892C15.1791 183.339 15.336 183.719 15.6498 184.034L21.5957 189.98C21.9875 190.371 22.4445 190.567 22.9666 190.567C23.4888 190.567 23.9458 190.371 24.3376 189.98L36.3919 177.925C36.6916 177.625 36.8451 177.248 36.8523 176.794C36.8591 176.34 36.7057 175.956 36.3919 175.642C36.0777 175.328 35.6971 175.171 35.25 175.171C34.803 175.171 34.4224 175.328 34.1082 175.642L22.9666 186.784Z" fill="white"/>
</g>
<defs>
<linearGradient id="paint0_linear_1777_23391" x1="62" y1="338" x2="62" y2="465" gradientUnits="userSpaceOnUse">
<stop stop-color="#F2F3F6"/>
<stop offset="1" stop-color="white" stop-opacity="0"/>
</linearGradient>
<linearGradient id="paint1_linear_1777_23391" x1="174" y1="338" x2="174" y2="465" gradientUnits="userSpaceOnUse">
<stop stop-color="#F2F3F6"/>
<stop offset="1" stop-color="white" stop-opacity="0"/>
</linearGradient>
</defs>
</svg>
