<svg width="24" height="24" viewBox="0 0 24 24" fill="none" xmlns="http://www.w3.org/2000/svg">
<mask id="mask0_2041_2572" style="mask-type:alpha" maskUnits="userSpaceOnUse" x="0" y="0" width="24" height="24">
<rect width="24" height="24" fill="#D9D9D9"/>
</mask>
<g mask="url(#mask0_2041_2572)">
<path d="M11.9999 12.9286L7.72692 17.2018C7.58842 17.3401 7.43933 17.4068 7.27967 17.4018C7.12017 17.3966 6.96792 17.3216 6.82292 17.1768C6.67808 17.0318 6.60567 16.877 6.60567 16.7123C6.60567 16.5477 6.67808 16.3928 6.82292 16.2478L11.0712 11.9998L6.79792 7.72682C6.65958 7.58832 6.59292 7.43507 6.59792 7.26707C6.60308 7.09923 6.67808 6.94282 6.82292 6.79782C6.96792 6.65298 7.12275 6.58057 7.28742 6.58057C7.45208 6.58057 7.60692 6.65298 7.75192 6.79782L11.9999 11.0711L16.2729 6.79782C16.4114 6.65948 16.5647 6.58865 16.7327 6.58532C16.9005 6.58215 17.0569 6.65298 17.2019 6.79782C17.3468 6.94282 17.4192 7.09765 17.4192 7.26232C17.4192 7.42698 17.3468 7.58182 17.2019 7.72682L12.9287 11.9998L17.2019 16.2728C17.3403 16.4113 17.4111 16.5604 17.4144 16.7201C17.4176 16.8796 17.3468 17.0318 17.2019 17.1768C17.0569 17.3216 16.9021 17.3941 16.7374 17.3941C16.5728 17.3941 16.4179 17.3216 16.2729 17.1768L11.9999 12.9286Z" fill="white"/>
</g>
</svg>
