<svg width="69" height="24" viewBox="0 0 69 24" fill="none" xmlns="http://www.w3.org/2000/svg">
<path d="M65.0489 0H68.658V15.4157H65.0489V9.17723H62.9351V13.8432H59.3776V0.928033H62.9351V5.74866H65.0489V0ZM57.3153 13.5854H53.5258V10.2599H48.1896V6.9087H53.5258V5.07841H46.8749V1.67562H57.3153V13.5854ZM68.065 21.7315L65.3583 24L60.0736 19.2825L54.789 24L52.108 21.7315L60.0736 14.6939L68.065 21.7315Z" fill="#212124"/>
<path d="M29.2237 2.19119H32.9874V6.13534H37.8596V9.48657H33.9928L38.2205 16.6788L35.5395 18.8442L31.1056 10.9817L26.6716 18.8442L24.0164 16.6788L28.1668 9.48657H24.3516V6.13534H29.2237V2.19119ZM40.8499 19.4887V13.5854H36.648V10.1826H40.8499V0H44.6394V19.4887H40.8499Z" fill="#212124"/>
<path d="M17.4522 14.6939H21.1386V23.8711H7.93985V14.4361H11.7293V16.7562H17.4522V14.6939ZM18.174 0H21.783V13.5338H18.174V8.79055H16.0601V13.3534H12.5027V0.928033H16.0601V5.36198H18.174V0ZM10.4404 12.9667H6.72825V10.1053H1.31472V6.75403H6.72825V5.05263H0V1.7014H10.4404V12.9667ZM17.4006 19.5145H11.6778V21.1386H17.4006V19.5145Z" fill="#212124"/>
</svg>
