<svg width="25" height="24" viewBox="0 0 25 24" fill="none" xmlns="http://www.w3.org/2000/svg">
<mask id="mask0_2041_3018" style="mask-type:alpha" maskUnits="userSpaceOnUse" x="0" y="0" width="25" height="24">
<rect x="0.5" width="24" height="24" fill="#D9D9D9"/>
</mask>
<g mask="url(#mask0_2041_3018)">
<path d="M11.849 12.6505H7.64902C7.46486 12.6505 7.31052 12.5887 7.18602 12.465C7.06136 12.3413 6.99902 12.1882 6.99902 12.0055C6.99902 11.8227 7.06136 11.6678 7.18602 11.541C7.31052 11.414 7.46486 11.3505 7.64902 11.3505H11.849V7.15049C11.849 6.96632 11.9109 6.81199 12.0345 6.68749C12.1582 6.56282 12.3114 6.50049 12.494 6.50049C12.6769 6.50049 12.8317 6.56282 12.9585 6.68749C13.0855 6.81199 13.149 6.96632 13.149 7.15049V11.3505H17.349C17.5332 11.3505 17.6875 11.4123 17.812 11.536C17.9367 11.6597 17.999 11.8128 17.999 11.9955C17.999 12.1783 17.9367 12.3332 17.812 12.46C17.6875 12.587 17.5332 12.6505 17.349 12.6505H13.149V16.8505C13.149 17.0347 13.0872 17.189 12.9635 17.3135C12.8399 17.4382 12.6867 17.5005 12.504 17.5005C12.3212 17.5005 12.1664 17.4382 12.0395 17.3135C11.9125 17.189 11.849 17.0347 11.849 16.8505V12.6505Z" fill="#212124"/>
</g>
</svg>
