<svg width="25" height="24" viewBox="0 0 25 24" fill="none" xmlns="http://www.w3.org/2000/svg">
<mask id="mask0_2340_250" style="mask-type:alpha" maskUnits="userSpaceOnUse" x="0" y="0" width="25" height="24">
<rect x="0.75" width="24" height="24" fill="#D9D9D9"/>
</mask>
<g mask="url(#mask0_2340_250)">
<path d="M6.05775 20.5C5.55258 20.5 5.125 20.325 4.775 19.975C4.425 19.625 4.25 19.1974 4.25 18.6923V5.30777C4.25 4.80261 4.425 4.37502 4.775 4.02502C5.125 3.67502 5.55258 3.50002 6.05775 3.50002H12.9098C13.1598 3.50002 13.3473 3.57852 13.4723 3.73552C13.5973 3.89269 13.6598 4.06419 13.6598 4.25002C13.6598 4.43586 13.5947 4.60736 13.4645 4.76452C13.3343 4.92152 13.1442 5.00002 12.8942 5.00002H6.05775C5.98075 5.00002 5.91025 5.03211 5.84625 5.09627C5.78208 5.16027 5.75 5.23077 5.75 5.30777V18.6923C5.75 18.7693 5.78208 18.8398 5.84625 18.9038C5.91025 18.9679 5.98075 19 6.05775 19H19.4423C19.5192 19 19.5898 18.9679 19.6538 18.9038C19.7179 18.8398 19.75 18.7693 19.75 18.6923V11.7923C19.75 11.5423 19.8285 11.3548 19.9855 11.2298C20.1427 11.1048 20.3142 11.0423 20.5 11.0423C20.6858 11.0423 20.8573 11.1048 21.0145 11.2298C21.1715 11.3548 21.25 11.5423 21.25 11.7923V18.6923C21.25 19.1974 21.075 19.625 20.725 19.975C20.375 20.325 19.9474 20.5 19.4423 20.5H6.05775ZM10.25 13.596V11.8155C10.25 11.5744 10.2968 11.3426 10.3905 11.1203C10.484 10.8978 10.6128 10.7045 10.777 10.5405L19.3098 2.00777C19.4648 1.85261 19.6353 1.73944 19.8212 1.66827C20.0071 1.59711 20.1962 1.56152 20.3885 1.56152C20.5847 1.56152 20.7731 1.59711 20.9538 1.66827C21.1346 1.73944 21.2993 1.84936 21.448 1.99802L22.7038 3.25002C22.8486 3.40519 22.9598 3.57636 23.0375 3.76352C23.115 3.95069 23.1538 4.14044 23.1538 4.33277C23.1538 4.52511 23.1208 4.71161 23.0548 4.89227C22.9888 5.07311 22.8782 5.24102 22.723 5.39602L14.1615 13.9578C13.9973 14.1218 13.8041 14.2532 13.5818 14.352C13.3593 14.4507 13.1275 14.5 12.8865 14.5H11.154C10.8962 14.5 10.6811 14.4138 10.5088 14.2413C10.3363 14.0689 10.25 13.8539 10.25 13.596ZM11.75 13H12.9963L19.2288 6.76727L18.6058 6.14427L17.9385 5.50202L11.75 11.6905V13Z" fill="white"/>
</g>
</svg>
