<svg width="8" height="16" viewBox="0 0 8 16" fill="none" xmlns="http://www.w3.org/2000/svg">
<path d="M6.75959 7.99992L0.580218 1.82034C0.47119 1.71145 0.414037 1.57422 0.408759 1.40867C0.403343 1.24297 0.455148 1.10568 0.564176 0.996793C0.673065 0.887765 0.810357 0.833252 0.976051 0.833252C1.14161 0.833252 1.2789 0.887765 1.38793 0.996793L7.58501 7.17783C7.7057 7.29853 7.79008 7.42777 7.83813 7.56554C7.88619 7.70346 7.91022 7.84825 7.91022 7.99992C7.91022 8.15159 7.88619 8.29638 7.83813 8.43429C7.79008 8.57207 7.7057 8.70131 7.58501 8.822L1.40376 15.003C1.29487 15.1121 1.15494 15.1692 0.983968 15.1745C0.812996 15.1799 0.673065 15.1281 0.564176 15.0191C0.455148 14.9102 0.400635 14.7729 0.400635 14.6072C0.400635 14.4417 0.455148 14.3044 0.564176 14.1953L6.75959 7.99992Z" fill="#868B94"/>
</svg>
