<svg width="172" height="230" viewBox="0 0 172 230" fill="none" xmlns="http://www.w3.org/2000/svg">
<rect x="20" width="132" height="132" rx="16" fill="#D1D3D8"/>
<rect x="10" y="12" width="152" height="152" rx="20" fill="#DCDEE3"/>
<rect y="28" width="172" height="172" rx="24" fill="#F2F3F6"/>
<mask id="mask0_2859_12821" style="mask-type:alpha" maskUnits="userSpaceOnUse" x="38" y="66" width="96" height="96">
<rect x="38" y="66" width="96" height="96" fill="#D9D9D9"/>
</mask>
<g mask="url(#mask0_2859_12821)">
<path d="M86 127.201C89 127.201 91.55 126.151 93.65 124.051C95.75 121.951 96.8 119.401 96.8 116.401C96.8 113.401 95.75 110.851 93.65 108.751C91.55 106.651 89 105.601 86 105.601C83 105.601 80.45 106.651 78.35 108.751C76.25 110.851 75.2 113.401 75.2 116.401C75.2 119.401 76.25 121.951 78.35 124.051C80.45 126.151 83 127.201 86 127.201ZM86 122.401C84.32 122.401 82.9 121.821 81.74 120.661C80.58 119.501 80 118.081 80 116.401C80 114.721 80.58 113.301 81.74 112.141C82.9 110.981 84.32 110.401 86 110.401C87.68 110.401 89.1 110.981 90.26 112.141C91.42 113.301 92 114.721 92 116.401C92 118.081 91.42 119.501 90.26 120.661C89.1 121.821 87.68 122.401 86 122.401ZM66.8 135.601C65.48 135.601 64.35 135.131 63.41 134.191C62.47 133.251 62 132.121 62 130.801V102.001C62 100.681 62.47 99.5509 63.41 98.6109C64.35 97.6709 65.48 97.2009 66.8 97.2009H74.36L78.8 92.4009H93.2L97.64 97.2009H105.2C106.52 97.2009 107.65 97.6709 108.59 98.6109C109.53 99.5509 110 100.681 110 102.001V130.801C110 132.121 109.53 133.251 108.59 134.191C107.65 135.131 106.52 135.601 105.2 135.601H66.8Z" fill="#DCDEE3"/>
<path d="M52 154C49.8 154 47.9167 153.216 46.35 151.65C44.7833 150.083 44 148.2 44 146V130H52V146H68V154H52ZM44 97.9995V81.9995C44 79.7995 44.7833 77.9162 46.35 76.3495C47.9167 74.7828 49.8 73.9995 52 73.9995H68V81.9995H52V97.9995H44ZM104 154V146H120V130H128V146C128 148.2 127.217 150.083 125.65 151.65C124.083 153.216 122.2 154 120 154H104ZM120 97.9995V81.9995H104V73.9995H120C122.2 73.9995 124.083 74.7828 125.65 76.3495C127.217 77.9162 128 79.7995 128 81.9995V97.9995H120Z" fill="#DCDEE3"/>
</g>
<path d="M66.2478 214.088C66.2478 216.184 68.0878 218.408 71.3038 218.952L70.4398 220.616C67.9598 220.12 66.1198 218.728 65.1918 216.904C64.2638 218.712 62.4078 220.104 59.9438 220.616L59.0798 218.952C62.2638 218.392 64.1038 216.152 64.1358 214.088V213.064H66.2478V214.088ZM58.7598 224.68V223.048H71.7838V224.68H58.7598ZM84.2359 213.48V215.144C84.2359 217.192 84.2359 219.16 83.5639 222.248L81.5799 222.056C81.8679 220.888 82.0279 219.848 82.1239 218.888L73.8999 219.272L73.6439 217.672L82.2359 217.368C82.2679 216.6 82.2839 215.864 82.2839 215.144V215.08H74.0919V213.48H84.2359ZM72.5879 224.712V223.112H85.5799V224.712H72.5879ZM98.32 212.232V222.696H96.336V212.232H98.32ZM87.152 214.728V213.16H93.744V217.672H89.136V219.272C91.664 219.256 93.28 219.176 95.12 218.824L95.344 220.424C93.28 220.808 91.44 220.888 88.432 220.872H87.184V216.2H91.76V214.728H87.152ZM88.752 226.184V221.832H90.736V224.584H98.672V226.184H88.752ZM113.364 214.376V216.008H111.54V217.608H113.364V219.24H111.54V221.736H109.524V212.2H111.54V214.376H113.364ZM100.084 218.92C102.452 218.136 103.492 216.248 103.508 214.312V213.032H105.492V214.504C105.492 216.216 106.484 217.88 108.756 218.536L107.7 220.072C106.196 219.592 105.14 218.632 104.532 217.4C103.892 218.824 102.772 219.928 101.14 220.488L100.084 218.92ZM101.46 224.84C104.5 224.44 105.972 222.936 105.972 221.416V221.032H107.956V221.416C107.956 222.936 109.46 224.44 112.5 224.84L111.732 226.376C109.476 226.056 107.844 225.112 106.996 223.816C106.132 225.112 104.5 226.056 102.26 226.376L101.46 224.84Z" fill="#868B94"/>
</svg>
