<svg width="20" height="20" viewBox="0 0 20 20" fill="none" xmlns="http://www.w3.org/2000/svg">
<mask id="mask0_3302_41569" style="mask-type:alpha" maskUnits="userSpaceOnUse" x="0" y="0" width="20" height="20">
<rect width="20" height="20" transform="matrix(-1 0 0 1 20 0)" fill="#D9D9D9"/>
</mask>
<g mask="url(#mask0_3302_41569)">
<path d="M6.37978 6.06579L14.6571 14.3352C14.7725 14.4504 14.8967 14.5033 15.0296 14.4937C15.1626 14.4841 15.2869 14.4216 15.4023 14.3062C15.5176 14.1908 15.5752 14.0645 15.5752 13.9272C15.5752 13.79 15.5176 13.6637 15.4023 13.5483L7.15374 5.29183H14.3381C14.4916 5.29183 14.6203 5.2403 14.7242 5.13725C14.8279 5.03419 14.8798 4.90655 14.8798 4.75433C14.8798 4.60197 14.8279 4.47294 14.7242 4.36725C14.6203 4.26141 14.4916 4.2085 14.3381 4.2085H5.96645C5.77658 4.2085 5.61749 4.27266 5.48915 4.401C5.36068 4.52947 5.29644 4.68857 5.29644 4.87829V13.2502C5.29644 13.4036 5.34797 13.5322 5.45103 13.636C5.55408 13.7399 5.68172 13.7918 5.83395 13.7918C5.98631 13.7918 6.1154 13.7399 6.22124 13.636C6.32693 13.5322 6.37978 13.4036 6.37978 13.2502V6.06579Z" fill="#4D5159"/>
</g>
</svg>
