<svg width="24" height="24" viewBox="0 0 24 24" fill="none" xmlns="http://www.w3.org/2000/svg">
<mask id="mask0_1639_6088" style="mask-type:alpha" maskUnits="userSpaceOnUse" x="0" y="0" width="24" height="24">
<rect width="24" height="24" fill="white"/>
</mask>
<g mask="url(#mask0_1639_6088)">
<path d="M10.9913 3.33336C11.4841 2.65255 12.516 2.65256 13.0089 3.33336L13.1055 3.48961L15.2423 7.53843L19.754 8.31968C20.7441 8.49126 21.137 9.70156 20.4366 10.4222L17.2452 13.7054L17.8975 18.2377C18.0403 19.2323 17.0103 19.9809 16.1085 19.5375L12.0001 17.517L7.89167 19.5375C6.98998 19.9804 5.95993 19.2321 6.1026 18.2377L6.75397 13.7054L3.56354 10.4222C2.86323 9.70166 3.25636 8.49153 4.24616 8.31968L8.7569 7.53843L10.8946 3.48961L10.9913 3.33336ZM10.0274 8.34801C9.84646 8.69044 9.51649 8.93041 9.13483 8.99644L4.96784 9.71617L7.91608 12.7484C8.18597 13.0262 8.31189 13.4138 8.2569 13.7972L7.65436 17.9818L11.4483 16.1166C11.7527 15.9669 12.1032 15.9486 12.419 16.0609L12.5518 16.1166L16.3448 17.9818L15.7432 13.7972C15.6883 13.414 15.8144 13.0262 16.084 12.7484L19.0313 9.71617L14.8653 8.99644C14.4836 8.93031 14.1536 8.69052 13.9727 8.34801L12.0001 4.60777L10.0274 8.34801Z" fill="white"/>
</g>
</svg>
