<svg width="49" height="48" viewBox="0 0 49 48" fill="none" xmlns="http://www.w3.org/2000/svg">
<rect x="0.359863" width="48" height="48" rx="24" fill="#333333"/>
<path d="M16.1474 37.5C15.5286 37.5 14.999 37.2796 14.5585 36.8389C14.1177 36.3984 13.8974 35.8687 13.8974 35.25V13.875H13.4849C13.1661 13.875 12.899 13.7665 12.6835 13.5495C12.4677 13.3328 12.3599 13.064 12.3599 12.7433C12.3599 12.4228 12.4677 12.1562 12.6835 11.9438C12.899 11.7313 13.1661 11.625 13.4849 11.625H19.4099C19.4099 11.3 19.5177 11.0312 19.7335 10.8188C19.949 10.6063 20.2161 10.5 20.5349 10.5H28.1849C28.5036 10.5 28.7709 10.6077 28.9866 10.8232C29.2021 11.039 29.3099 11.3062 29.3099 11.625H35.2349C35.5536 11.625 35.8209 11.7335 36.0366 11.9505C36.2521 12.1672 36.3599 12.436 36.3599 12.7567C36.3599 13.0772 36.2521 13.3438 36.0366 13.5563C35.8209 13.7688 35.5536 13.875 35.2349 13.875H34.8224V35.25C34.8224 35.8687 34.6021 36.3984 34.1616 36.8389C33.7209 37.2796 33.1911 37.5 32.5724 37.5H16.1474ZM32.5724 13.875H16.1474V35.25H32.5724V13.875ZM21.2541 32.025C21.5746 32.025 21.8411 31.9171 22.0536 31.7014C22.2661 31.4859 22.3724 31.2188 22.3724 30.9V18.1875C22.3724 17.8688 22.2639 17.6015 22.0469 17.3857C21.8301 17.1702 21.5614 17.0625 21.2406 17.0625C20.9201 17.0625 20.6536 17.1702 20.4411 17.3857C20.2286 17.6015 20.1224 17.8688 20.1224 18.1875V30.9C20.1224 31.2188 20.2309 31.4859 20.4479 31.7014C20.6646 31.9171 20.9334 32.025 21.2541 32.025ZM27.4791 32.025C27.7996 32.025 28.0661 31.9171 28.2786 31.7014C28.4911 31.4859 28.5974 31.2188 28.5974 30.9V18.1875C28.5974 17.8688 28.4889 17.6015 28.2719 17.3857C28.0551 17.1702 27.7864 17.0625 27.4656 17.0625C27.1451 17.0625 26.8786 17.1702 26.6661 17.3857C26.4536 17.6015 26.3474 17.8688 26.3474 18.1875V30.9C26.3474 31.2188 26.4559 31.4859 26.6729 31.7014C26.8896 31.9171 27.1584 32.025 27.4791 32.025Z" fill="white"/>
</svg>
