<svg width="30" height="30" viewBox="0 0 30 30" fill="none" xmlns="http://www.w3.org/2000/svg">
<path d="M5.16458 24.4038C6.68958 23.3804 8.24014 22.58 9.81625 22.0025C11.3924 21.4253 13.1203 21.1367 15 21.1367C16.8797 21.1367 18.6088 21.4253 20.1871 22.0025C21.7654 22.58 23.3171 23.3804 24.8421 24.4038C26.0093 23.1524 26.9257 21.7375 27.5913 20.1592C28.2568 18.5808 28.5896 16.8611 28.5896 15C28.5896 11.2117 27.2718 7.99958 24.6363 5.36375C22.0004 2.72819 18.7883 1.41042 15 1.41042C11.2117 1.41042 7.99958 2.72819 5.36375 5.36375C2.72819 7.99958 1.41042 11.2117 1.41042 15C1.41042 16.8611 1.74417 18.5808 2.41167 20.1592C3.07944 21.7375 3.99708 23.1524 5.16458 24.4038ZM14.995 18.705C13.5989 18.705 12.424 18.2267 11.4704 17.27C10.5171 16.3131 10.0404 15.1365 10.0404 13.7404C10.0404 12.3443 10.5189 11.1696 11.4758 10.2163C12.4325 9.26292 13.6089 8.78625 15.005 8.78625C16.4011 8.78625 17.576 9.26472 18.5296 10.2217C19.4829 11.1783 19.9596 12.3547 19.9596 13.7508C19.9596 15.1469 19.4811 16.3217 18.5242 17.275C17.5675 18.2283 16.3911 18.705 14.995 18.705ZM14.9888 30C12.9085 30 10.9547 29.6106 9.1275 28.8317C7.30028 28.0528 5.71056 26.9835 4.35833 25.6237C3.00611 24.2643 1.94167 22.6772 1.165 20.8625C0.388334 19.0478 0 17.089 0 14.9863C0 12.8976 0.389444 10.9424 1.16833 9.12042C1.94722 7.29875 3.01653 5.71264 4.37625 4.36208C5.73569 3.01181 7.32278 1.94722 9.1375 1.16833C10.9522 0.389444 12.911 0 15.0138 0C17.1024 0 19.0576 0.389444 20.8796 1.16833C22.7013 1.94722 24.2874 3.01181 25.6379 4.36208C26.9882 5.71264 28.0528 7.30028 28.8317 9.125C29.6106 10.9497 30 12.9056 30 14.9925C30 17.0939 29.6106 19.0513 28.8317 20.8646C28.0528 22.6779 26.9882 24.2643 25.6379 25.6237C24.2874 26.9835 22.6985 28.0528 20.8713 28.8317C19.0443 29.6106 17.0835 30 14.9888 30Z" fill="#4D5159"/>
</svg>
