<svg width="24" height="24" viewBox="0 0 24 24" fill="none" xmlns="http://www.w3.org/2000/svg">
<mask id="mask0_1453_4976" style="mask-type:alpha" maskUnits="userSpaceOnUse" x="0" y="0" width="24" height="24">
<rect width="24" height="24" fill="#D9D9D9"/>
</mask>
<g mask="url(#mask0_1453_4976)">
<path d="M6.95976 20.1924C6.52343 20.1924 6.13601 20.0494 5.79751 19.7636C5.45901 19.4779 5.25217 19.117 5.17701 18.6809L3.77101 10.2549C3.72501 9.97869 3.78909 9.73253 3.96326 9.51636C4.13726 9.30036 4.36809 9.19236 4.65576 9.19236H19.3443C19.6319 9.19236 19.8628 9.30036 20.0368 9.51636C20.2109 9.73253 20.275 9.97869 20.229 10.2549L18.823 18.6809C18.7478 19.117 18.541 19.4779 18.2025 19.7636C17.864 20.0494 17.4766 20.1924 17.0403 20.1924H6.95976ZM10 14.4424H14C14.2125 14.4424 14.3906 14.3704 14.5343 14.2266C14.6781 14.0828 14.75 13.9046 14.75 13.6921C14.75 13.4794 14.6781 13.3014 14.5343 13.1579C14.3906 13.0142 14.2125 12.9424 14 12.9424H10C9.78751 12.9424 9.60943 13.0143 9.46576 13.1581C9.32193 13.3019 9.25001 13.4801 9.25001 13.6926C9.25001 13.9053 9.32193 14.0834 9.46576 14.2271C9.60943 14.3706 9.78751 14.4424 10 14.4424ZM6.00001 8.00011C5.78751 8.00011 5.60942 7.92819 5.46576 7.78436C5.32192 7.64053 5.25001 7.46236 5.25001 7.24986C5.25001 7.03719 5.32192 6.85911 5.46576 6.71561C5.60942 6.57194 5.78751 6.50011 6.00001 6.50011H18C18.2125 6.50011 18.3906 6.57203 18.5343 6.71586C18.6781 6.85969 18.75 7.03786 18.75 7.25036C18.75 7.46303 18.6781 7.64111 18.5343 7.78461C18.3906 7.92828 18.2125 8.00011 18 8.00011H6.00001ZM8.00001 5.30786C7.78751 5.30786 7.60943 5.23594 7.46576 5.09211C7.32193 4.94828 7.25001 4.77011 7.25001 4.55761C7.25001 4.34494 7.32193 4.16686 7.46576 4.02336C7.60943 3.87969 7.78751 3.80786 8.00001 3.80786H16C16.2125 3.80786 16.3906 3.87978 16.5343 4.02361C16.6781 4.16744 16.75 4.34561 16.75 4.55811C16.75 4.77078 16.6781 4.94886 16.5343 5.09236C16.3906 5.23603 16.2125 5.30786 16 5.30786H8.00001Z" fill="#393A40"/>
</g>
</svg>
