<svg width="15" height="18" viewBox="0 0 15 18" fill="none" xmlns="http://www.w3.org/2000/svg">
<g clip-path="url(#clip0_1002_129)">
<path d="M7.23999 3.94615C8.02002 3.94615 8.9978 3.42435 9.58008 2.72861C10.1074 2.09809 10.4919 1.21755 10.4919 0.336999C10.4919 0.217418 10.481 0.0978386 10.459 0C9.59106 0.0326128 8.54736 0.57616 7.92114 1.30451C7.42676 1.85893 6.97632 2.72861 6.97632 3.62003C6.97632 3.75048 6.99829 3.88093 7.00928 3.92441C7.06421 3.93528 7.1521 3.94615 7.23999 3.94615ZM4.49341 17.1C5.55908 17.1 6.03149 16.3934 7.36084 16.3934C8.71216 16.3934 9.00879 17.0783 10.1953 17.0783C11.3599 17.0783 12.1399 16.0129 12.876 14.9693C13.7 13.7735 14.0405 12.5994 14.0625 12.5451C13.9856 12.5233 11.7554 11.621 11.7554 9.08811C11.7554 6.89218 13.5132 5.90292 13.6121 5.82683C12.4475 4.17444 10.6787 4.13096 10.1953 4.13096C8.88794 4.13096 7.82227 4.91367 7.1521 4.91367C6.427 4.91367 5.47119 4.17444 4.3396 4.17444C2.18628 4.17444 0 5.93554 0 9.26205C0 11.3275 0.812988 13.5126 1.81274 14.9258C2.66968 16.1216 3.41675 17.1 4.49341 17.1Z" fill="white"/>
</g>
<defs>
<clipPath id="clip0_1002_129">
<rect width="15" height="18" fill="white"/>
</clipPath>
</defs>
</svg>
