<svg width="25" height="24" viewBox="0 0 25 24" fill="none" xmlns="http://www.w3.org/2000/svg">
<mask id="mask0_2340_255" style="mask-type:alpha" maskUnits="userSpaceOnUse" x="0" y="0" width="25" height="24">
<rect x="0.25" width="24" height="24" fill="#D9D9D9"/>
</mask>
<g mask="url(#mask0_2340_255)">
<path d="M7.55775 20.4997C7.06058 20.4997 6.635 20.3227 6.281 19.9687C5.927 19.6147 5.75 19.1892 5.75 18.692V5.99973H5.5C5.2875 5.99973 5.10942 5.92782 4.96575 5.78398C4.82192 5.64015 4.75 5.46198 4.75 5.24948C4.75 5.03682 4.82192 4.85873 4.96575 4.71523C5.10942 4.57157 5.2875 4.49973 5.5 4.49973H9.25C9.25 4.2549 9.33625 4.04624 9.50875 3.87374C9.68108 3.7014 9.88967 3.61523 10.1345 3.61523H14.3655C14.6103 3.61523 14.8189 3.7014 14.9913 3.87374C15.1638 4.04624 15.25 4.2549 15.25 4.49973H19C19.2125 4.49973 19.3906 4.57165 19.5343 4.71548C19.6781 4.85932 19.75 5.03748 19.75 5.24998C19.75 5.46265 19.6781 5.64073 19.5343 5.78423C19.3906 5.9279 19.2125 5.99973 19 5.99973H18.75V18.692C18.75 19.1892 18.573 19.6147 18.219 19.9687C17.865 20.3227 17.4394 20.4997 16.9423 20.4997H7.55775ZM17.25 5.99973H7.25V18.692C7.25 18.7818 7.27883 18.8556 7.3365 18.9132C7.39417 18.9709 7.46792 18.9997 7.55775 18.9997H16.9423C17.0321 18.9997 17.1058 18.9709 17.1635 18.9132C17.2212 18.8556 17.25 18.7818 17.25 18.692V5.99973ZM10.4043 16.9997C10.6168 16.9997 10.7948 16.9279 10.9385 16.7842C11.082 16.6404 11.1537 16.4622 11.1537 16.2497V8.74973C11.1537 8.53723 11.0818 8.35907 10.938 8.21523C10.7943 8.07157 10.6162 7.99973 10.4035 7.99973C10.191 7.99973 10.0129 8.07157 9.86925 8.21523C9.72575 8.35907 9.654 8.53723 9.654 8.74973V16.2497C9.654 16.4622 9.72583 16.6404 9.8695 16.7842C10.0133 16.9279 10.1916 16.9997 10.4043 16.9997ZM14.0965 16.9997C14.309 16.9997 14.4871 16.9279 14.6307 16.7842C14.7743 16.6404 14.846 16.4622 14.846 16.2497V8.74973C14.846 8.53723 14.7742 8.35907 14.6305 8.21523C14.4867 8.07157 14.3084 7.99973 14.0958 7.99973C13.8833 7.99973 13.7052 8.07157 13.5615 8.21523C13.418 8.35907 13.3462 8.53723 13.3462 8.74973V16.2497C13.3462 16.4622 13.4182 16.6404 13.562 16.7842C13.7057 16.9279 13.8838 16.9997 14.0965 16.9997Z" fill="white"/>
</g>
</svg>
