<svg width="11" height="20" viewBox="0 0 11 20" fill="none" xmlns="http://www.w3.org/2000/svg">
<path d="M2.18449 9.99977L9.71724 17.5325C9.91591 17.7312 10.0127 17.9651 10.0077 18.2343C10.0026 18.5036 9.90066 18.7376 9.70199 18.9363C9.50316 19.1349 9.26916 19.2343 8.99999 19.2343C8.73082 19.2343 8.49682 19.1349 8.29799 18.9363L0.626988 11.2805C0.446155 11.0997 0.312155 10.8971 0.224988 10.6728C0.137822 10.4484 0.0942383 10.2241 0.0942383 9.99977C0.0942383 9.77544 0.137822 9.5511 0.224988 9.32677C0.312155 9.10244 0.446155 8.89985 0.626988 8.71902L8.29799 1.04777C8.49682 0.849104 8.73341 0.752354 9.00774 0.757521C9.28207 0.762687 9.51857 0.864604 9.71724 1.06327C9.91591 1.26194 10.0152 1.49594 10.0152 1.76527C10.0152 2.03444 9.91591 2.26835 9.71724 2.46702L2.18449 9.99977Z" fill="#1C1B1F"/>
</svg>
